{"title":"David 2013 Hindi New Source HD CamRip XviD Sample Included ~ rDX","uid":8101236,"size":741298912,"categoryP":"video","categoryS":"movies","magnet":"?xt=urn:btih:fd9edd873235038699bb44da062612a3b30f4c46&amp;dn=David+2013+Hindi+New+Source+HD+CamRip+XviD+Sample+Included+%7E+rDX&amp;tr=udp%3A%2F%2Ftracker.openbittorrent.com%3A80&amp;tr=udp%3A%2F%2Fopen.demonii.com%3A1337&amp;tr=udp%3A%2F%2Ftracker.coppersurfer.tk%3A6969&amp;tr=udp%3A%2F%2Fexodus.desync.com%3A6969","seeders":1,"leechers":0,"uploader":"basicssom","files":3,"time":1359978419,"description":"David 2013 Hindi Movies New Source HD CamRip XviD Sample Included ~ rDX\n\nScreen Shots :\n &lt;a href=&quot;\nhttp://myimghost.no-ip.biz/David.html&quot; rel=&quot;nofollow&quot; target=&quot;_NEW&quot;&gt;\nhttp://myimghost.no-ip.biz/David.html&lt;/a&gt;\n &lt;a href=&quot;\nhttp://myimghost.cwahi.net/David.html&quot; rel=&quot;nofollow&quot; target=&quot;_NEW&quot;&gt;\nhttp://myimghost.cwahi.net/David.html&lt;/a&gt;\n\nFormat                                   : AVI\nFormat/Info                              : Audio Video Interleave\nFile size                                : 694 MiB\nDuration                                 : 2h 23mn\nOverall bit rate                         : 678 Kbps\nWriting library                          : MPlayer\n\nVideo\nID                                       : 0\nFormat                                   : MPEG-4 Visual\nFormat profile                           : Advanced Simple@L5\nFormat settings, BVOP                    : 2\nFormat settings, QPel                    : No\nFormat settings, GMC                     : No warppoints\nFormat settings, Matrix                  : Default (H.263)\nCodec ID                                 : XVID\nCodec ID/Hint                            : XviD\nDuration                                 : 2h 23mn\nBit rate                                 : 545 Kbps\nWidth                                    : 576 pixels\nHeight                                   : 272 pixels\nDisplay aspect ratio                     : 2.118\nFrame rate                               : 25.000 fps\nColor space                              : YUV\nChroma subsampling                       : 4:2:0\nBit depth                                : 8 bits\nScan type                                : Progressive\nCompression mode                         : Lossy\nBits/(Pixel*Frame)                       : 0.139\nStream size                              : 557 MiB (80%)\nWriting library                          : XviD 1.2.1 (UTC 2008-12-04)\n\nAudio\nID                                       : 1\nFormat                                   : AC-3\nFormat/Info                              : Audio Coding 3\nMode extension                           : CM (complete main)\nFormat settings, Endianness              : Big\nCodec ID                                 : 2000\nDuration                                 : 2h 23mn\nBit rate mode                            : Constant\nBit rate                                 : 128 Kbps\nChannel(s)                               : 2 channels\nChannel positions                        : Front: L R\nSampling rate                            : 48.0 KHz\nBit depth                                : 16 bits\nCompression mode                         : Lossy\nStream size                              : 131 MiB (19%)\nAlignment                                : Split accross interleaves\nInterleave, duration                     : 500 ms (12.50 video frames)\nInterleave, preload duration             : 500 ms","torrent":{"xt":"urn:btih:fd9edd873235038699bb44da062612a3b30f4c46","amp;dn":"David+2013+Hindi+New+Source+HD+CamRip+XviD+Sample+Included+%7E+rDX","amp;tr":["udp%3A%2F%2Ftracker.openbittorrent.com%3A80","udp%3A%2F%2Fopen.demonii.com%3A1337","udp%3A%2F%2Ftracker.coppersurfer.tk%3A6969","udp%3A%2F%2Fexodus.desync.com%3A6969"],"infoHash":"fd9edd873235038699bb44da062612a3b30f4c46","infoHashBuffer":{"type":"Buffer","data":[253,158,221,135,50,53,3,134,153,187,68,218,6,38,18,163,179,15,76,70]},"announce":[],"urlList":[]}}